<svg width="30" height="32" viewBox="0 0 30 32" fill="none" xmlns="http://www.w3.org/2000/svg">
<path d="M20.4249 13.6923V6.76923C20.4249 5.23914 19.8171 3.77171 18.7352 2.68977C17.6532 1.60783 16.1858 1 14.6557 1C13.1256 1 11.6582 1.60783 10.5762 2.68977C9.4943 3.77171 8.88647 5.23914 8.88647 6.76923V13.6923M26.3572 10.6262L28.3003 29.0877C28.408 30.1108 27.608 31 26.5788 31H2.73262C2.48987 31.0003 2.24977 30.9494 2.02793 30.8509C1.80609 30.7523 1.60747 30.6081 1.44497 30.4278C1.28247 30.2475 1.15972 30.0349 1.08471 29.8041C1.00969 29.5732 0.984085 29.3291 1.00955 29.0877L2.95416 10.6262C2.99902 10.2009 3.19974 9.80723 3.51763 9.52116C3.83551 9.2351 4.24805 9.07685 4.6757 9.07692H24.6357C25.5219 9.07692 26.2649 9.74615 26.3572 10.6262ZM9.46339 13.6923C9.46339 13.8453 9.40261 13.9921 9.29442 14.1003C9.18622 14.2084 9.03948 14.2692 8.88647 14.2692C8.73346 14.2692 8.58672 14.2084 8.47852 14.1003C8.37033 13.9921 8.30955 13.8453 8.30955 13.6923C8.30955 13.5393 8.37033 13.3926 8.47852 13.2844C8.58672 13.1762 8.73346 13.1154 8.88647 13.1154C9.03948 13.1154 9.18622 13.1762 9.29442 13.2844C9.40261 13.3926 9.46339 13.5393 9.46339 13.6923V13.6923ZM21.0019 13.6923C21.0019 13.8453 20.9411 13.9921 20.8329 14.1003C20.7247 14.2084 20.5779 14.2692 20.4249 14.2692C20.2719 14.2692 20.1252 14.2084 20.017 14.1003C19.9088 13.9921 19.848 13.8453 19.848 13.6923C19.848 13.5393 19.9088 13.3926 20.017 13.2844C20.1252 13.1762 20.2719 13.1154 20.4249 13.1154C20.5779 13.1154 20.7247 13.1762 20.8329 13.2844C20.9411 13.3926 21.0019 13.5393 21.0019 13.6923V13.6923Z" stroke="black" stroke-width="1.5" stroke-linecap="round" stroke-linejoin="round"/>
</svg>
